<mxfile host="app.diagrams.net" modified="2024-01-07T17:11:32.113Z" agent="Mozilla/5.0 (Windows NT 10.0; Win64; x64) AppleWebKit/537.36 (KHTML, like Gecko) Chrome/119.0.0.0 Safari/537.36 OPR/105.0.0.0" etag="ib-5flRGKRiaJNRrs1wG" version="22.1.17" type="device">
  <diagram id="C5RBs43oDa-KdzZeNtuy" name="Page-1">
    <mxGraphModel dx="972" dy="514" grid="1" gridSize="10" guides="1" tooltips="1" connect="1" arrows="1" fold="1" page="1" pageScale="1" pageWidth="827" pageHeight="1169" math="0" shadow="0">
      <root>
        <mxCell id="WIyWlLk6GJQsqaUBKTNV-0" />
        <mxCell id="WIyWlLk6GJQsqaUBKTNV-1" parent="WIyWlLk6GJQsqaUBKTNV-0" />
        <mxCell id="wV_Zzzm7XwECJubsmlTa-2" value="" style="edgeStyle=orthogonalEdgeStyle;rounded=0;orthogonalLoop=1;jettySize=auto;html=1;" edge="1" parent="WIyWlLk6GJQsqaUBKTNV-1" source="wV_Zzzm7XwECJubsmlTa-0" target="wV_Zzzm7XwECJubsmlTa-1">
          <mxGeometry relative="1" as="geometry" />
        </mxCell>
        <mxCell id="wV_Zzzm7XwECJubsmlTa-0" value="Start" style="ellipse;whiteSpace=wrap;html=1;" vertex="1" parent="WIyWlLk6GJQsqaUBKTNV-1">
          <mxGeometry x="310" y="220" width="190" height="40" as="geometry" />
        </mxCell>
        <mxCell id="wV_Zzzm7XwECJubsmlTa-55" value="" style="edgeStyle=orthogonalEdgeStyle;rounded=0;orthogonalLoop=1;jettySize=auto;html=1;" edge="1" parent="WIyWlLk6GJQsqaUBKTNV-1" source="wV_Zzzm7XwECJubsmlTa-1" target="wV_Zzzm7XwECJubsmlTa-54">
          <mxGeometry relative="1" as="geometry" />
        </mxCell>
        <mxCell id="wV_Zzzm7XwECJubsmlTa-1" value="array =&amp;nbsp;“Hello”, “2”, “world”, “:-)”;" style="shape=parallelogram;perimeter=parallelogramPerimeter;whiteSpace=wrap;html=1;fixedSize=1;" vertex="1" parent="WIyWlLk6GJQsqaUBKTNV-1">
          <mxGeometry x="305" y="300" width="200" height="40" as="geometry" />
        </mxCell>
        <mxCell id="wV_Zzzm7XwECJubsmlTa-6" value="" style="edgeStyle=orthogonalEdgeStyle;rounded=0;orthogonalLoop=1;jettySize=auto;html=1;" edge="1" parent="WIyWlLk6GJQsqaUBKTNV-1" source="wV_Zzzm7XwECJubsmlTa-3" target="wV_Zzzm7XwECJubsmlTa-4">
          <mxGeometry relative="1" as="geometry" />
        </mxCell>
        <mxCell id="wV_Zzzm7XwECJubsmlTa-3" value="Start&lt;br&gt;&lt;div style=&quot;font-family: Consolas, &amp;quot;Courier New&amp;quot;, monospace; font-size: 14px; line-height: 19px;&quot;&gt;FilterString(array)&lt;/div&gt;" style="ellipse;whiteSpace=wrap;html=1;" vertex="1" parent="WIyWlLk6GJQsqaUBKTNV-1">
          <mxGeometry x="590" y="220" width="190" height="40" as="geometry" />
        </mxCell>
        <mxCell id="wV_Zzzm7XwECJubsmlTa-15" value="" style="edgeStyle=orthogonalEdgeStyle;rounded=0;orthogonalLoop=1;jettySize=auto;html=1;" edge="1" parent="WIyWlLk6GJQsqaUBKTNV-1" source="wV_Zzzm7XwECJubsmlTa-4" target="wV_Zzzm7XwECJubsmlTa-7">
          <mxGeometry relative="1" as="geometry" />
        </mxCell>
        <mxCell id="wV_Zzzm7XwECJubsmlTa-4" value="count =0;" style="shape=parallelogram;perimeter=parallelogramPerimeter;whiteSpace=wrap;html=1;fixedSize=1;" vertex="1" parent="WIyWlLk6GJQsqaUBKTNV-1">
          <mxGeometry x="582.5" y="300" width="205" height="40" as="geometry" />
        </mxCell>
        <mxCell id="wV_Zzzm7XwECJubsmlTa-19" value="" style="edgeStyle=orthogonalEdgeStyle;rounded=0;orthogonalLoop=1;jettySize=auto;html=1;" edge="1" parent="WIyWlLk6GJQsqaUBKTNV-1" source="wV_Zzzm7XwECJubsmlTa-7" target="wV_Zzzm7XwECJubsmlTa-16">
          <mxGeometry relative="1" as="geometry" />
        </mxCell>
        <mxCell id="wV_Zzzm7XwECJubsmlTa-38" style="edgeStyle=orthogonalEdgeStyle;rounded=0;orthogonalLoop=1;jettySize=auto;html=1;entryX=1;entryY=0.5;entryDx=0;entryDy=0;exitX=1;exitY=0.5;exitDx=0;exitDy=0;" edge="1" parent="WIyWlLk6GJQsqaUBKTNV-1" source="wV_Zzzm7XwECJubsmlTa-7" target="wV_Zzzm7XwECJubsmlTa-37">
          <mxGeometry relative="1" as="geometry" />
        </mxCell>
        <mxCell id="wV_Zzzm7XwECJubsmlTa-7" value="for i = o ... array.Length" style="shape=hexagon;perimeter=hexagonPerimeter2;whiteSpace=wrap;html=1;fixedSize=1;" vertex="1" parent="WIyWlLk6GJQsqaUBKTNV-1">
          <mxGeometry x="580" y="380" width="210" height="40" as="geometry" />
        </mxCell>
        <mxCell id="wV_Zzzm7XwECJubsmlTa-22" style="edgeStyle=orthogonalEdgeStyle;rounded=0;orthogonalLoop=1;jettySize=auto;html=1;entryX=1;entryY=0.5;entryDx=0;entryDy=0;exitX=1;exitY=0.5;exitDx=0;exitDy=0;" edge="1" parent="WIyWlLk6GJQsqaUBKTNV-1" source="wV_Zzzm7XwECJubsmlTa-16" target="wV_Zzzm7XwECJubsmlTa-21">
          <mxGeometry relative="1" as="geometry" />
        </mxCell>
        <mxCell id="wV_Zzzm7XwECJubsmlTa-26" value="No&lt;br&gt;" style="edgeLabel;html=1;align=center;verticalAlign=middle;resizable=0;points=[];" vertex="1" connectable="0" parent="wV_Zzzm7XwECJubsmlTa-22">
          <mxGeometry x="-0.4651" y="1" relative="1" as="geometry">
            <mxPoint y="1" as="offset" />
          </mxGeometry>
        </mxCell>
        <mxCell id="wV_Zzzm7XwECJubsmlTa-34" style="edgeStyle=orthogonalEdgeStyle;rounded=0;orthogonalLoop=1;jettySize=auto;html=1;entryX=0.5;entryY=0;entryDx=0;entryDy=0;" edge="1" parent="WIyWlLk6GJQsqaUBKTNV-1" source="wV_Zzzm7XwECJubsmlTa-16" target="wV_Zzzm7XwECJubsmlTa-20">
          <mxGeometry relative="1" as="geometry" />
        </mxCell>
        <mxCell id="wV_Zzzm7XwECJubsmlTa-35" value="Yes" style="edgeLabel;html=1;align=center;verticalAlign=middle;resizable=0;points=[];" vertex="1" connectable="0" parent="wV_Zzzm7XwECJubsmlTa-34">
          <mxGeometry x="-0.25" y="-1" relative="1" as="geometry">
            <mxPoint as="offset" />
          </mxGeometry>
        </mxCell>
        <mxCell id="wV_Zzzm7XwECJubsmlTa-16" value="If array[i] &amp;lt;= 3" style="rhombus;whiteSpace=wrap;html=1;" vertex="1" parent="WIyWlLk6GJQsqaUBKTNV-1">
          <mxGeometry x="637.5" y="450" width="95" height="90" as="geometry" />
        </mxCell>
        <mxCell id="wV_Zzzm7XwECJubsmlTa-32" value="" style="edgeStyle=orthogonalEdgeStyle;rounded=0;orthogonalLoop=1;jettySize=auto;html=1;" edge="1" parent="WIyWlLk6GJQsqaUBKTNV-1" source="wV_Zzzm7XwECJubsmlTa-20" target="wV_Zzzm7XwECJubsmlTa-21">
          <mxGeometry relative="1" as="geometry" />
        </mxCell>
        <mxCell id="wV_Zzzm7XwECJubsmlTa-20" value="count = count + 1" style="rounded=0;whiteSpace=wrap;html=1;" vertex="1" parent="WIyWlLk6GJQsqaUBKTNV-1">
          <mxGeometry x="625" y="580" width="120" height="40" as="geometry" />
        </mxCell>
        <mxCell id="wV_Zzzm7XwECJubsmlTa-36" style="edgeStyle=orthogonalEdgeStyle;rounded=0;orthogonalLoop=1;jettySize=auto;html=1;entryX=0;entryY=0.5;entryDx=0;entryDy=0;exitX=0;exitY=0.5;exitDx=0;exitDy=0;" edge="1" parent="WIyWlLk6GJQsqaUBKTNV-1" source="wV_Zzzm7XwECJubsmlTa-21" target="wV_Zzzm7XwECJubsmlTa-7">
          <mxGeometry relative="1" as="geometry" />
        </mxCell>
        <mxCell id="wV_Zzzm7XwECJubsmlTa-21" value="i = i + 1" style="rounded=0;whiteSpace=wrap;html=1;" vertex="1" parent="WIyWlLk6GJQsqaUBKTNV-1">
          <mxGeometry x="625" y="650" width="120" height="40" as="geometry" />
        </mxCell>
        <mxCell id="wV_Zzzm7XwECJubsmlTa-37" value="return count;&lt;br&gt;end;" style="ellipse;whiteSpace=wrap;html=1;" vertex="1" parent="WIyWlLk6GJQsqaUBKTNV-1">
          <mxGeometry x="600" y="720" width="170" height="50" as="geometry" />
        </mxCell>
        <mxCell id="wV_Zzzm7XwECJubsmlTa-41" value="" style="edgeStyle=orthogonalEdgeStyle;rounded=0;orthogonalLoop=1;jettySize=auto;html=1;" edge="1" parent="WIyWlLk6GJQsqaUBKTNV-1" source="wV_Zzzm7XwECJubsmlTa-39" target="wV_Zzzm7XwECJubsmlTa-40">
          <mxGeometry relative="1" as="geometry" />
        </mxCell>
        <mxCell id="wV_Zzzm7XwECJubsmlTa-39" value="Start&lt;br&gt;&lt;div style=&quot;font-family: Consolas, &amp;quot;Courier New&amp;quot;, monospace; font-size: 14px; line-height: 19px;&quot;&gt;CreatingNewArray(array)&lt;/div&gt;" style="ellipse;whiteSpace=wrap;html=1;" vertex="1" parent="WIyWlLk6GJQsqaUBKTNV-1">
          <mxGeometry x="35" y="215" width="200" height="50" as="geometry" />
        </mxCell>
        <mxCell id="wV_Zzzm7XwECJubsmlTa-43" value="" style="edgeStyle=orthogonalEdgeStyle;rounded=0;orthogonalLoop=1;jettySize=auto;html=1;" edge="1" parent="WIyWlLk6GJQsqaUBKTNV-1" source="wV_Zzzm7XwECJubsmlTa-40" target="wV_Zzzm7XwECJubsmlTa-42">
          <mxGeometry relative="1" as="geometry" />
        </mxCell>
        <mxCell id="wV_Zzzm7XwECJubsmlTa-40" value="result = [FilterString(array).Length];&lt;br&gt;index = 0;" style="shape=parallelogram;perimeter=parallelogramPerimeter;whiteSpace=wrap;html=1;fixedSize=1;" vertex="1" parent="WIyWlLk6GJQsqaUBKTNV-1">
          <mxGeometry x="20" y="310" width="230" height="50" as="geometry" />
        </mxCell>
        <mxCell id="wV_Zzzm7XwECJubsmlTa-46" value="" style="edgeStyle=orthogonalEdgeStyle;rounded=0;orthogonalLoop=1;jettySize=auto;html=1;" edge="1" parent="WIyWlLk6GJQsqaUBKTNV-1" source="wV_Zzzm7XwECJubsmlTa-42" target="wV_Zzzm7XwECJubsmlTa-44">
          <mxGeometry relative="1" as="geometry" />
        </mxCell>
        <mxCell id="wV_Zzzm7XwECJubsmlTa-53" style="edgeStyle=orthogonalEdgeStyle;rounded=0;orthogonalLoop=1;jettySize=auto;html=1;entryX=1;entryY=0.5;entryDx=0;entryDy=0;exitX=0.898;exitY=-0.026;exitDx=0;exitDy=0;exitPerimeter=0;" edge="1" parent="WIyWlLk6GJQsqaUBKTNV-1" source="wV_Zzzm7XwECJubsmlTa-42" target="wV_Zzzm7XwECJubsmlTa-49">
          <mxGeometry relative="1" as="geometry">
            <Array as="points">
              <mxPoint x="280" y="399" />
              <mxPoint x="280" y="745" />
            </Array>
          </mxGeometry>
        </mxCell>
        <mxCell id="wV_Zzzm7XwECJubsmlTa-42" value="for i = o ... array.Length" style="shape=hexagon;perimeter=hexagonPerimeter2;whiteSpace=wrap;html=1;fixedSize=1;" vertex="1" parent="WIyWlLk6GJQsqaUBKTNV-1">
          <mxGeometry x="30" y="400" width="210" height="40" as="geometry" />
        </mxCell>
        <mxCell id="wV_Zzzm7XwECJubsmlTa-47" value="" style="edgeStyle=orthogonalEdgeStyle;rounded=0;orthogonalLoop=1;jettySize=auto;html=1;" edge="1" parent="WIyWlLk6GJQsqaUBKTNV-1" source="wV_Zzzm7XwECJubsmlTa-44" target="wV_Zzzm7XwECJubsmlTa-45">
          <mxGeometry relative="1" as="geometry" />
        </mxCell>
        <mxCell id="wV_Zzzm7XwECJubsmlTa-48" value="Yes" style="edgeLabel;html=1;align=center;verticalAlign=middle;resizable=0;points=[];" vertex="1" connectable="0" parent="wV_Zzzm7XwECJubsmlTa-47">
          <mxGeometry x="-0.3835" y="-1" relative="1" as="geometry">
            <mxPoint as="offset" />
          </mxGeometry>
        </mxCell>
        <mxCell id="wV_Zzzm7XwECJubsmlTa-51" style="edgeStyle=orthogonalEdgeStyle;rounded=0;orthogonalLoop=1;jettySize=auto;html=1;entryX=1;entryY=0.5;entryDx=0;entryDy=0;exitX=1;exitY=0.5;exitDx=0;exitDy=0;" edge="1" parent="WIyWlLk6GJQsqaUBKTNV-1" source="wV_Zzzm7XwECJubsmlTa-44" target="wV_Zzzm7XwECJubsmlTa-42">
          <mxGeometry relative="1" as="geometry">
            <Array as="points">
              <mxPoint x="260" y="535" />
              <mxPoint x="260" y="420" />
            </Array>
          </mxGeometry>
        </mxCell>
        <mxCell id="wV_Zzzm7XwECJubsmlTa-52" value="No" style="edgeLabel;html=1;align=center;verticalAlign=middle;resizable=0;points=[];" vertex="1" connectable="0" parent="wV_Zzzm7XwECJubsmlTa-51">
          <mxGeometry x="0.4122" y="1" relative="1" as="geometry">
            <mxPoint as="offset" />
          </mxGeometry>
        </mxCell>
        <mxCell id="wV_Zzzm7XwECJubsmlTa-44" value="If array[i] &amp;lt;= 3" style="rhombus;whiteSpace=wrap;html=1;" vertex="1" parent="WIyWlLk6GJQsqaUBKTNV-1">
          <mxGeometry x="87.5" y="490" width="95" height="90" as="geometry" />
        </mxCell>
        <mxCell id="wV_Zzzm7XwECJubsmlTa-50" style="edgeStyle=orthogonalEdgeStyle;rounded=0;orthogonalLoop=1;jettySize=auto;html=1;entryX=0;entryY=0.5;entryDx=0;entryDy=0;exitX=0;exitY=0.5;exitDx=0;exitDy=0;" edge="1" parent="WIyWlLk6GJQsqaUBKTNV-1" source="wV_Zzzm7XwECJubsmlTa-45" target="wV_Zzzm7XwECJubsmlTa-42">
          <mxGeometry relative="1" as="geometry" />
        </mxCell>
        <mxCell id="wV_Zzzm7XwECJubsmlTa-45" value="result[index] = array[i];&lt;br&gt;index = index + 1;" style="rounded=0;whiteSpace=wrap;html=1;" vertex="1" parent="WIyWlLk6GJQsqaUBKTNV-1">
          <mxGeometry x="67.5" y="630" width="135" height="40" as="geometry" />
        </mxCell>
        <mxCell id="wV_Zzzm7XwECJubsmlTa-49" value="return result;&lt;br&gt;end;" style="ellipse;whiteSpace=wrap;html=1;" vertex="1" parent="WIyWlLk6GJQsqaUBKTNV-1">
          <mxGeometry x="50" y="720" width="170" height="50" as="geometry" />
        </mxCell>
        <mxCell id="wV_Zzzm7XwECJubsmlTa-57" value="" style="edgeStyle=orthogonalEdgeStyle;rounded=0;orthogonalLoop=1;jettySize=auto;html=1;" edge="1" parent="WIyWlLk6GJQsqaUBKTNV-1" source="wV_Zzzm7XwECJubsmlTa-54" target="wV_Zzzm7XwECJubsmlTa-56">
          <mxGeometry relative="1" as="geometry" />
        </mxCell>
        <mxCell id="wV_Zzzm7XwECJubsmlTa-54" value="Output(CreatingNewArray(array);" style="rounded=0;whiteSpace=wrap;html=1;" vertex="1" parent="WIyWlLk6GJQsqaUBKTNV-1">
          <mxGeometry x="305" y="390" width="200" height="60" as="geometry" />
        </mxCell>
        <mxCell id="wV_Zzzm7XwECJubsmlTa-56" value="End" style="ellipse;whiteSpace=wrap;html=1;" vertex="1" parent="WIyWlLk6GJQsqaUBKTNV-1">
          <mxGeometry x="305" y="480" width="200" height="50" as="geometry" />
        </mxCell>
      </root>
    </mxGraphModel>
  </diagram>
</mxfile>
